<?xml version="1.0" encoding="UTF-8" standalone="no"?>
<!-- Created with Inkscape (http://www.inkscape.org/) -->

<svg
   xmlns:dc="http://purl.org/dc/elements/1.1/"
   xmlns:cc="http://creativecommons.org/ns#"
   xmlns:rdf="http://www.w3.org/1999/02/22-rdf-syntax-ns#"
   xmlns:svg="http://www.w3.org/2000/svg"
   xmlns="http://www.w3.org/2000/svg"
   xmlns:sodipodi="http://sodipodi.sourceforge.net/DTD/sodipodi-0.dtd"
   xmlns:inkscape="http://www.inkscape.org/namespaces/inkscape"
   width="210mm"
   height="297mm"
   viewBox="0 0 210 297"
   version="1.1"
   id="svg8"
   sodipodi:docname="Logo.svg"
   inkscape:version="0.92.3 (2405546, 2018-03-11)">
  <defs
     id="defs2">
    <inkscape:perspective
       sodipodi:type="inkscape:persp3d"
       inkscape:vp_x="28.480536 : 506.28054 : 1"
       inkscape:vp_y="0 : 3241.2882 : 0"
       inkscape:vp_z="570.89806 : 506.28054 : 1"
       inkscape:persp3d-origin="299.6893 : 345.83677 : 1"
       id="perspective48" />
    <inkscape:perspective
       sodipodi:type="inkscape:persp3d"
       inkscape:vp_x="0 : 148.5 : 1"
       inkscape:vp_y="0 : 1000 : 0"
       inkscape:vp_z="24.035719 : 252.82143 : 1"
       inkscape:persp3d-origin="105 : 99 : 1"
       id="perspective18" />
  </defs>
  <sodipodi:namedview
     id="base"
     pagecolor="#ffffff"
     bordercolor="#666666"
     borderopacity="1.0"
     inkscape:pageopacity="0.0"
     inkscape:pageshadow="2"
     inkscape:zoom="0.7"
     inkscape:cx="385.61065"
     inkscape:cy="609.43589"
     inkscape:document-units="mm"
     inkscape:current-layer="layer1"
     showgrid="false"
     inkscape:snap-text-baseline="true"
     inkscape:window-width="1366"
     inkscape:window-height="706"
     inkscape:window-x="-8"
     inkscape:window-y="-8"
     inkscape:window-maximized="1" />
  <metadata
     id="metadata5">
    <rdf:RDF>
      <cc:Work
         rdf:about="">
        <dc:format>image/svg+xml</dc:format>
        <dc:type
           rdf:resource="http://purl.org/dc/dcmitype/StillImage" />
        <dc:title></dc:title>
      </cc:Work>
    </rdf:RDF>
  </metadata>
  <g
     inkscape:label="Capa 1"
     inkscape:groupmode="layer"
     id="layer1">
    <g
       aria-label="Yesid Niño"
       transform="matrix(0.83048985,0,0,1.2728017,-216.93778,-497.79619)"
       style="font-style:normal;font-variant:normal;font-weight:normal;font-stretch:normal;font-size:42.66666794px;line-height:85.33333588px;font-family:Vivaldi;-inkscape-font-specification:Vivaldi;letter-spacing:0px;word-spacing:0px;fill:#000000;fill-opacity:1;stroke:none"
       id="flowRoot10">
      <path
         d="m 304.04817,475.08405 q -3.56771,5.49479 -5.98958,10.07812 -0.0521,0.3125 -0.0521,0.39063 l -0.13021,1.53646 -0.13021,1.35416 q -0.026,0.13021 -0.0521,0.59896 l -0.44271,0.18229 q -1.45834,0.54688 -2.13542,1.22396 -0.67708,0.67709 -1.32812,2.21354 -1.19792,2.78646 -1.19792,5.46875 0,1.66667 0.59896,2.52605 0.625,0.88541 2.1875,1.43229 l -1.32813,3.64583 q -3.33333,-1.22396 -3.33333,-5.59896 0,-3.54166 2.91667,-9.42708 0.80729,-1.64063 1.11979,-3.67188 0.33854,-2.05729 0.33854,-5.52083 l -0.026,-5.80729 v -0.57292 q -4.0625,0.91146 -6.43229,3.69792 -2.3698,2.76041 -2.3698,6.58854 0,3.98438 3.02084,6.90104 -0.57292,0.10417 -0.80729,0.10417 -1.66667,0 -2.76042,-1.5625 -1.06771,-1.53646 -1.06771,-3.90625 0,-4.47917 2.68229,-8.09896 2.70834,-3.61979 7.57813,-5.72917 -0.54688,-5.49479 -1.97917,-8.61979 -1.74479,-3.80208 -5.05208,-6.01562 -3.28125,-2.23959 -7.16146,-2.23959 -5.67708,0 -9.34896,3.69792 -3.64583,3.67187 -3.64583,9.40104 0,5.54688 3.4375,10.18229 3.4375,4.60938 8.51562,5.83334 v 0.49479 q -6.06771,0 -9.97396,-4.11459 -3.90625,-4.11458 -3.90625,-10.52083 0,-7.13542 4.71354,-11.90104 4.71355,-4.79167 11.77084,-4.79167 7.00521,0 11.06771,4.55729 4.08854,4.53125 4.86979,13.22917 1.45833,-0.13021 2.60417,-0.13021 1.40625,0 3.72395,0.26042 l 0.4948,-0.72917 q 6.53646,-9.73958 12.05729,-13.90625 5.54687,-4.19271 11.875,-4.19271 3.25521,0 5.15625,1.58855 1.90104,1.5625 1.90104,4.27083 0,2.70833 -1.77083,5.57292 -1.74479,2.86458 -4.81771,5.18229 -7.21354,5.41666 -17.47396,5.41666 -2.60417,0 -4.24479,-0.18229 l -2.99479,-0.3125 q -0.10417,-0.026 -0.67709,-0.0781 z m 1.58854,-2.52604 0.72917,0.0781 q 4.50521,0.49479 8.17709,0.49479 11.64062,0 16.92708,-6.01562 2.36979,-2.70834 2.36979,-5.70313 0,-2.47396 -1.875,-4.03646 -1.875,-1.5625 -4.84375,-1.5625 -10.70312,0 -21.48438,16.7448 z m -2.73437,2.42187 -0.41667,-0.0521 q -2.1875,-0.23438 -2.96875,-0.23438 -0.33854,0 -1.14583,0.0781 v 1.38021 q 0,3.46354 -0.26042,6.79687 0.33854,-0.52083 0.39063,-0.625 l 2.03125,-3.38542 2.05729,-3.4375 q 0.0521,-0.0521 0.3125,-0.52083 z"
         style="font-style:italic;font-variant:normal;font-weight:normal;font-stretch:condensed;font-size:53.33333588px;line-height:85.33333588px;font-family:Vivaldi;-inkscape-font-specification:'Vivaldi Italic Condensed';text-align:center;text-anchor:middle;fill:#000080"
         id="path3896" />
      <path
         d="m 343.21484,478.93821 q 0.36458,0.72917 0.36458,1.30209 0,2.5 -3.46354,5.75521 -5.05208,4.76562 -8.59375,4.76562 -3.04687,0 -3.04687,-3.46354 0,-3.90625 2.36979,-8.20313 2.39583,-4.29687 6.11979,-7.08333 4.53125,-3.38542 8.07292,-3.38542 2.05729,0 2.05729,1.51042 0,0.98958 -0.98958,2.39583 -0.98959,1.38021 -2.47396,2.5 -1.38021,1.01563 -3.51563,1.875 -2.10937,0.85938 -3.25521,0.85938 -1.22395,0 -1.6927,-1.35417 1.09375,0.15625 1.74479,0.15625 2.60416,0 4.79166,-1.48437 2.21355,-1.51042 2.21355,-3.25521 0,-1.25 -1.61459,-1.25 -2.89062,0 -5.91146,3.54167 -2.13541,2.5 -3.51562,5.83333 -1.38021,3.33333 -1.38021,5.9375 0,2.68229 2.23958,2.68229 2.44792,0 5.07813,-2.68229 2.65625,-2.70833 4.40104,-6.95313 z"
         style="font-style:italic;font-variant:normal;font-weight:normal;font-stretch:condensed;font-size:53.33333588px;line-height:85.33333588px;font-family:Vivaldi;-inkscape-font-specification:'Vivaldi Italic Condensed';text-align:center;text-anchor:middle;fill:#000080"
         id="path3898" />
      <path
         d="m 359.82943,468.88613 -0.28646,0.49479 -1.27604,2.13542 q -0.67709,1.14583 -1.43229,2.29167 l -0.28646,0.41666 -0.65104,-0.44271 q 0.1302,-0.28645 0.18229,-0.41666 0.54687,-1.11979 0.54687,-1.58854 0,-0.98959 -1.74479,-0.98959 -1.58854,0 -2.78646,1.19792 -1.19792,1.17187 -1.19792,2.73437 0,0.83334 0.52084,1.97917 l 1.25,2.68229 q 0.625,1.35417 0.625,2.96875 0,3.15105 -3.46354,5.96355 -2.9948,2.42187 -5.3125,2.42187 -1.32813,0 -2.1875,-0.65104 -0.85938,-0.67708 -0.85938,-1.71875 0,-1.22396 0.625,-2.36979 1.61458,2.76041 4.01042,2.76041 1.90104,0 3.35937,-1.30208 1.45834,-1.30208 1.45834,-3.02083 0,-0.91146 -0.52084,-2.08334 l -1.53646,-3.35937 q -0.4427,-0.98959 -0.4427,-2.1875 0,-2.16146 2.39583,-4.84375 1.61458,-1.77084 3.20312,-2.47396 1.61459,-0.72917 4.03646,-0.72917 0.9375,0 1.77084,0.13021 z"
         style="font-style:italic;font-variant:normal;font-weight:normal;font-stretch:condensed;font-size:53.33333588px;line-height:85.33333588px;font-family:Vivaldi;-inkscape-font-specification:'Vivaldi Italic Condensed';text-align:center;text-anchor:middle;fill:#000080"
         id="path3900" />
      <path
         d="m 366.80859,468.20905 v 0.28646 q 0,2.44791 -3.22917,9.6875 l -1.92708,4.375 q -1.53646,3.51562 -1.58854,4.29687 -0.026,0.80729 0.88542,0.75521 0.52083,-0.026 1.71875,-0.54687 l 0.33854,0.7552 q -4.08854,1.95313 -6.53646,2.78646 0.13021,-2.44791 0.78125,-4.50521 0.67708,-2.08333 2.89062,-6.875 2.8125,-6.14583 2.86459,-7.1875 0.0521,-0.80729 -0.67709,-0.80729 -0.33854,0 -0.88541,0.18229 l -1.09375,0.39063 q -0.10417,0.026 -0.49479,0.18229 l -0.26042,-0.83333 0.54687,-0.1823 q 2.89063,-1.0677 5.88542,-2.39583 z m 1.51042,-6.66667 q 1.19791,0 1.19791,1.19792 0,0.67708 -0.54687,1.22396 -0.52083,0.54687 -1.19792,0.54687 -1.22396,0 -1.22396,-1.19792 0,-0.67708 0.52084,-1.22395 0.54687,-0.54688 1.25,-0.54688 z"
         style="font-style:italic;font-variant:normal;font-weight:normal;font-stretch:condensed;font-size:53.33333588px;line-height:85.33333588px;font-family:Vivaldi;-inkscape-font-specification:'Vivaldi Italic Condensed';text-align:center;text-anchor:middle;fill:#000080"
         id="path3902" />
      <path
         d="m 392.77213,454.77155 q -0.10417,1.71875 -2.44792,7.63021 l -1.92708,4.84375 -0.75521,1.875 q 1.5625,0.625 1.69271,2.55208 -1.09375,-0.36458 -2.5,-0.44271 l -0.18229,0.46875 -3.35938,8.54167 q -2.34375,5.96354 -2.34375,6.79687 0,0.72917 0.70313,0.72917 0.72917,0 2.39583,-1.01562 0.0781,-0.0521 0.26042,-0.15625 l 0.49479,0.625 q -2.8125,1.95312 -7.86458,3.38541 l 0.20833,-0.85937 q 0.83333,-3.125 2.73438,-7.8125 0.59895,-1.4323 1.09375,-2.6823 l 2.91666,-7.60416 0.26042,-0.57292 q -2.8125,0 -6.06771,1.51042 -3.25521,1.48437 -5.70313,3.88021 -4.58333,4.55729 -4.58333,9.375 0,2.21354 1.61458,2.21354 1.58855,0 3.95834,-2.1875 2.39583,-2.1875 4.21875,-5.3125 1.71875,-2.96875 2.8125,-6.64063 0.44271,0.96354 0.44271,2.05729 0,2.16146 -1.875,5.02605 -1.84896,2.86458 -4.97396,5.54687 -4.66146,3.95834 -7.26563,3.95834 -1.97916,0 -1.97916,-2.47396 0,-2.16146 1.3802,-4.97396 1.40625,-2.8125 3.72396,-5.36459 6.48438,-7.10937 15.07813,-8.5677 l 0.70312,-1.79688 1.875,-4.92187 q 0.83334,-2.13542 0.85938,-2.91667 0.0521,-1.11979 -1.11979,-1.11979 -0.67709,0 -1.51042,0.33854 l -0.3125,-0.78125 0.41667,-0.15625 q 4.24479,-1.58854 6.92708,-2.99479 z"
         style="font-style:italic;font-variant:normal;font-weight:normal;font-stretch:condensed;font-size:53.33333588px;line-height:85.33333588px;font-family:Vivaldi;-inkscape-font-specification:'Vivaldi Italic Condensed';text-align:center;text-anchor:middle;fill:#000080"
         id="path3904" />
      <path
         d="m 475.63672,454.53717 -2.03125,6.84896 -0.9375,-0.18229 0.0781,-0.49479 q 0.23437,-1.22396 0.23437,-1.84896 0,-1.09375 -1.14583,-1.58854 -1.11979,-0.52084 -3.59375,-0.52084 -6.95313,0 -10.65104,5.20834 -3.69792,5.18229 -5.1823,12.89062 0.625,0.41667 0.9375,0.65104 3.59375,2.39584 4.5573,3.59375 0.96354,1.19792 0.96354,3.20313 0,2.76042 -1.66667,5.39063 -1.64062,2.60416 -3.38542,2.60416 -1.79687,0 -2.89062,-1.84896 -1.06771,-1.84895 -1.06771,-4.97396 0,-3.07291 0.57292,-5.91145 l -0.75521,-0.52084 -2.29167,-1.58854 q -3.28125,-2.26562 -7.76042,-5.78125 l -0.46875,-0.39062 q -1.92708,6.17187 -4.34895,9.73958 -3.72396,5.41667 -8.56771,8.48958 -4.81771,3.04688 -9.6875,3.04688 -5.83334,0 -9.58334,-3.51563 -3.72396,-3.54166 -3.72396,-9.03646 0,-5.49479 3.69792,-8.90625 3.72396,-3.4375 9.6875,-3.4375 6.14584,0 12.13542,4.84375 1.66667,1.32813 2.52604,1.32813 0.72917,0 2.42188,-1.06771 0.15625,-0.10417 0.49479,-0.3125 l 0.52083,0.75521 -0.44271,0.3125 q -0.9375,0.65104 -2.08333,1.38021 l -2.34375,1.53646 -0.59896,0.41666 q -7.23958,-7.36979 -15,-7.36979 -4.14063,0 -6.84896,2.52604 -2.70833,2.52604 -2.70833,6.40625 0,5.20834 3.90625,8.59375 3.93229,3.38542 10,3.38542 4.08854,0 7.70833,-2.1875 3.64584,-2.21354 6.27604,-6.27604 2.55209,-3.95834 4.89584,-12.00521 l -0.98959,-0.85938 q -4.24479,-3.64583 -6.95312,-6.74479 -2.68229,-3.09896 -2.68229,-4.32291 0,-0.8073 1.48437,-3.69792 l 1.22396,-2.42188 0.9375,0.36459 q -0.98958,2.10937 -0.98958,3.02083 0,1.30208 2.5,4.29688 2.5,2.99479 6.53646,6.5625 0.88541,-3.90625 3.69791,-5.1823 -0.88541,2.47396 -2.03125,6.66667 l 0.41667,0.36458 q 2.99479,2.60417 10,7.65625 l 0.54688,0.41667 q 3.09895,-10.46875 7.78645,-15.3125 4.71355,-4.84375 11.79688,-4.84375 2.08333,0 4.86979,0.65104 z m -23.93229,23.80209 q -0.20833,1.53645 -0.20833,3.02083 0,6.92708 2.9427,6.92708 1.09375,0 1.79688,-0.96354 0.70312,-0.96354 0.70312,-2.42187 0,-1.66667 -1.0677,-2.9948 -1.06771,-1.32812 -4.16667,-3.5677 z"
         style="font-style:italic;font-variant:normal;font-weight:normal;font-stretch:condensed;font-size:53.33333588px;line-height:85.33333588px;font-family:Vivaldi;-inkscape-font-specification:'Vivaldi Italic Condensed';text-align:center;text-anchor:middle;fill:#000080"
         id="path3906" />
      <path
         d="m 475.2461,468.20905 v 0.28646 q 0,2.44791 -3.22917,9.6875 l -1.92708,4.375 q -1.53646,3.51562 -1.58854,4.29687 -0.026,0.80729 0.88541,0.75521 0.52084,-0.026 1.71875,-0.54687 l 0.33854,0.7552 q -4.08854,1.95313 -6.53645,2.78646 0.1302,-2.44791 0.78125,-4.50521 0.67708,-2.08333 2.89062,-6.875 2.8125,-6.14583 2.86458,-7.1875 0.0521,-0.80729 -0.67708,-0.80729 -0.33854,0 -0.88542,0.18229 l -1.09375,0.39063 q -0.10416,0.026 -0.49479,0.18229 l -0.26041,-0.83333 0.54687,-0.1823 q 2.89063,-1.0677 5.88542,-2.39583 z m 1.51042,-6.66667 q 1.19791,0 1.19791,1.19792 0,0.67708 -0.54687,1.22396 -0.52084,0.54687 -1.19792,0.54687 -1.22396,0 -1.22396,-1.19792 0,-0.67708 0.52084,-1.22395 0.54687,-0.54688 1.25,-0.54688 z"
         style="font-style:italic;font-variant:normal;font-weight:normal;font-stretch:condensed;font-size:53.33333588px;line-height:85.33333588px;font-family:Vivaldi;-inkscape-font-specification:'Vivaldi Italic Condensed';text-align:center;text-anchor:middle;fill:#000080"
         id="path3908" />
      <path
         d="m 491.6784,486.69863 0.41666,0.70313 q -3.125,2.23958 -7.39583,3.125 0.54687,-4.29688 5.05208,-13.04688 l 1.69271,-3.22917 q 0.85938,-1.66666 0.85938,-2.13541 0,-0.70313 -0.57292,-0.70313 -0.80729,0 -3.07292,1.82292 -2.23958,1.82292 -4.375,4.21875 -4.42708,4.94792 -7.42187,11.875 -1.22396,0.28646 -3.46355,1.25 2.39584,-4.89583 4.81771,-10.98958 2.44792,-6.1198 2.44792,-7.23959 0,-0.9375 -0.75521,-0.9375 -0.39062,0 -1.69271,0.39063 -0.10416,0.026 -0.28646,0.0781 l -0.15625,-0.83333 q 3.64584,-1.04167 6.58855,-2.34375 l 0.33854,-0.15625 q 0.0521,0.33854 0.0521,0.46875 0,2.31771 -3.41146,9.86979 l -0.36458,0.78125 0.44271,-0.49479 q 4.27083,-4.86979 7.86458,-7.65625 3.61979,-2.8125 5.65104,-2.8125 1.27605,0 1.27605,1.30208 0,1.35417 -3.41146,7.99479 -4.08854,7.91667 -4.08854,8.90626 0,0.7552 0.70312,0.7552 0.78125,0 2.13542,-0.85937 z m -5.52084,-20.49479 q 0.75521,-2.36979 1.45834,-3.17708 0.72916,-0.8073 2.03125,-0.8073 0.78125,0 2.57812,0.44271 1.51042,0.36459 2.1875,0.36459 1.27604,0 1.90104,-1.32813 l 0.49479,0.10417 q -0.65104,2.1875 -1.40625,3.02083 -0.7552,0.80729 -2.08333,0.80729 -0.54687,0 -1.04167,-0.10416 l -1.53645,-0.39063 q -1.5625,-0.36458 -2.29167,-0.36458 -1.11979,0 -1.71875,1.27604 -0.026,0.0781 -0.13021,0.26042 z"
         style="font-style:italic;font-variant:normal;font-weight:normal;font-stretch:condensed;font-size:53.33333588px;line-height:85.33333588px;font-family:Vivaldi;-inkscape-font-specification:'Vivaldi Italic Condensed';text-align:center;text-anchor:middle;fill:#000080"
         id="path3910" />
      <path
         d="m 513.91797,471.25592 q -1.38021,-0.13021 -2.29167,-0.13021 -6.84896,0 -10.49479,5.26042 -1.43229,2.08333 -2.42188,4.79167 -0.98958,2.68229 -0.98958,4.50521 0,1.27604 0.72917,2.10937 0.75521,0.80729 1.90104,0.80729 2.70833,0 5.98958,-4.34895 3.28125,-4.34896 3.28125,-7.96876 0,-0.80729 -0.4427,-1.35416 -0.41667,-0.57292 -1.01563,-0.57292 -2.08333,0 -3.98438,4.16667 -0.1302,-0.52084 -0.1302,-0.91146 0,-1.61458 2.00521,-3.38542 2.0052,-1.77083 3.80208,-1.77083 1.19792,0 2.03125,0.98958 0.83333,0.96354 0.83333,2.36979 0,4.71355 -6.01562,10.00001 -5.15625,4.58333 -8.56771,4.58333 -1.48438,0 -2.47396,-1.06771 -0.96354,-1.06771 -0.96354,-2.68229 0,-3.56771 2.47396,-7.44792 2.5,-3.90625 6.5625,-6.71875 2.23958,-1.53646 4.86979,-2.52604 2.65625,-0.98958 4.50521,-0.98958 1.14583,0 1.14583,1.01562 0,0.39063 -0.33854,1.27604 z"
         style="font-style:italic;font-variant:normal;font-weight:normal;font-stretch:condensed;font-size:53.33333588px;line-height:85.33333588px;font-family:Vivaldi;-inkscape-font-specification:'Vivaldi Italic Condensed';text-align:center;text-anchor:middle;fill:#000080"
         id="path3912" />
    </g>
    <g
       sodipodi:type="inkscape:box3d"
       id="g34"
       inkscape:perspectiveID="#perspective48"
       inkscape:corner0="0.16720707 : 0.1243652 : 0 : 1"
       inkscape:corner7="0.052254856 : 0.087331073 : 0.25 : 1">
      <path
         sodipodi:type="inkscape:box3dside"
         id="path36"
         style="fill:#353564;fill-rule:evenodd;stroke:none;stroke-width:0.76555872;stroke-linejoin:round"
         inkscape:box3dsidetype="6"
         d="m 260.83757,-417.17824 v 102.84232 l 54.69569,18.53212 v -84.7006 z"
         points="260.83757,-314.33592 315.53326,-295.8038 315.53326,-380.5044 260.83757,-417.17824 " />
      <path
         sodipodi:type="inkscape:box3dside"
         id="path46"
         style="fill:#e9e9ff;fill-rule:evenodd;stroke:none;stroke-width:0.76555872;stroke-linejoin:round"
         inkscape:box3dsidetype="11"
         d="m 315.53326,-380.5044 25.33863,-15.11421 v 92.17725 l -25.33863,7.63756 z"
         points="340.87189,-395.61861 340.87189,-303.44136 315.53326,-295.8038 315.53326,-380.5044 " />
      <path
         sodipodi:type="inkscape:box3dside"
         id="path38"
         style="fill:#4d4d9f;fill-rule:evenodd;stroke:none;stroke-width:0.76555872;stroke-linejoin:round"
         inkscape:box3dsidetype="5"
         d="m 260.83757,-417.17824 25.38354,-22.71151 54.65078,44.27114 -25.33863,15.11421 z"
         points="286.22111,-439.88975 340.87189,-395.61861 315.53326,-380.5044 260.83757,-417.17824 " />
      <path
         sodipodi:type="inkscape:box3dside"
         id="path44"
         style="fill:#afafde;fill-rule:evenodd;stroke:none;stroke-width:0.76555872;stroke-linejoin:round"
         inkscape:box3dsidetype="13"
         d="m 260.83757,-314.33592 25.38354,-11.47664 54.65078,22.3712 -25.33863,7.63756 z"
         points="286.22111,-325.81256 340.87189,-303.44136 315.53326,-295.8038 260.83757,-314.33592 " />
      <path
         sodipodi:type="inkscape:box3dside"
         id="path42"
         style="fill:#d7d7ff;fill-rule:evenodd;stroke:none;stroke-width:0.76555872;stroke-linejoin:round"
         inkscape:box3dsidetype="14"
         d="m 286.22111,-439.88975 v 114.07719 l 54.65078,22.3712 v -92.17725 z"
         points="286.22111,-325.81256 340.87189,-303.44136 340.87189,-395.61861 286.22111,-439.88975 " />
      <path
         sodipodi:type="inkscape:box3dside"
         id="path40"
         style="fill:#8686bf;fill-rule:evenodd;stroke:none;stroke-width:0.76555872;stroke-linejoin:round"
         inkscape:box3dsidetype="3"
         d="m 260.83757,-417.17824 25.38354,-22.71151 v 114.07719 l -25.38354,11.47664 z"
         points="286.22111,-439.88975 286.22111,-325.81256 260.83757,-314.33592 260.83757,-417.17824 " />
    </g>
    <flowRoot
       xml:space="preserve"
       id="flowRoot60"
       style="fill:black;fill-opacity:1;stroke:none;font-family:sans-serif;font-style:normal;font-weight:normal;font-size:40px;line-height:1.25;letter-spacing:0px;word-spacing:0px"><flowRegion
         id="flowRegion62"><rect
           id="rect64"
           width="5.7142859"
           height="51.42857"
           x="414.28571"
           y="625.37683" /></flowRegion><flowPara
         id="flowPara66"></flowPara></flowRoot>    <path
       style="fill:none;stroke:#000000;stroke-width:0.4568713px;stroke-linecap:butt;stroke-linejoin:miter;stroke-opacity:1"
       d="m 7.374163,124.73609 201.129197,1.74472 C 64.970569,101.74125 72.12176,101.37739 7.0010501,81.045663 L 7.374163,124.73609"
       id="path3808"
       inkscape:connector-curvature="0"
       sodipodi:nodetypes="cccc" />
  </g>
</svg>
